<svg xmlns="http://www.w3.org/2000/svg" width="1024" height="1024" viewBox="0 0 1024 1024">
  <defs>
    <linearGradient id="tileFill" x1="188" y1="132" x2="824" y2="888" gradientUnits="userSpaceOnUse">
      <stop offset="0" stop-color="#ffffff"/>
      <stop offset="0.52" stop-color="#f7f8f9"/>
      <stop offset="1" stop-color="#e2e5e8"/>
    </linearGradient>
    <linearGradient id="tileStroke" x1="206" y1="126" x2="818" y2="902" gradientUnits="userSpaceOnUse">
      <stop offset="0" stop-color="#ffffff" stop-opacity="0.98"/>
      <stop offset="0.5" stop-color="#d7dce1" stop-opacity="0.58"/>
      <stop offset="1" stop-color="#2f2f2f" stop-opacity="0.12"/>
    </linearGradient>
    <radialGradient id="topGlow" cx="0" cy="0" r="1" gradientTransform="matrix(410 0 0 410 466 392)" gradientUnits="userSpaceOnUse">
      <stop offset="0" stop-color="#ffffff" stop-opacity="0.9"/>
      <stop offset="0.48" stop-color="#dfe7ee" stop-opacity="0.24"/>
      <stop offset="1" stop-color="#ffffff" stop-opacity="0"/>
    </radialGradient>
    <filter id="tileShadow" x="78" y="76" width="868" height="884" filterUnits="userSpaceOnUse" color-interpolation-filters="sRGB">
      <feDropShadow dx="0" dy="28" stdDeviation="30" flood-color="#111111" flood-opacity="0.17"/>
      <feDropShadow dx="0" dy="5" stdDeviation="8" flood-color="#111111" flood-opacity="0.1"/>
    </filter>
    <filter id="logoShadow" x="128" y="144" width="768" height="768" filterUnits="userSpaceOnUse" color-interpolation-filters="sRGB">
      <feDropShadow dx="0" dy="13" stdDeviation="12" flood-color="#111111" flood-opacity="0.18"/>
    </filter>
  </defs>

  <rect width="1024" height="1024" fill="none"/>
  <g filter="url(#tileShadow)">
    <rect x="128" y="128" width="768" height="768" rx="218" fill="url(#tileFill)"/>
    <rect x="143" y="143" width="738" height="738" rx="203" fill="none" stroke="url(#tileStroke)" stroke-width="30"/>
    <path d="M224 314C261 217 346 172 466 166H638C754 171 829 238 852 347" fill="none" stroke="#ffffff" stroke-width="34" stroke-linecap="round" opacity="0.64"/>
    <path d="M178 708C240 816 350 864 498 866H636C728 862 802 812 842 736" fill="none" stroke="#c9ced4" stroke-width="22" stroke-linecap="round" opacity="0.22"/>
    <rect x="128" y="128" width="768" height="768" rx="218" fill="url(#topGlow)"/>
  </g>

  <g filter="url(#logoShadow)">
    <image href="deepscientist-logo.png" x="-8" y="-20" width="1040" height="1040" preserveAspectRatio="xMidYMid meet"/>
  </g>
</svg>
