<svg xmlns="http://www.w3.org/2000/svg" width="256" height="256" viewBox="0 0 256 256" fill="none">
  <title>OpenBioScience logo</title>
  <path
    d="M54 142C65 95 106 61 154 64C194 66 224 92 229 124"
    stroke="#171716"
    stroke-width="18"
    stroke-linecap="round"
    stroke-linejoin="round"
  />
  <path
    d="M204 94C219 115 224 144 215 169C201 207 161 226 121 216C84 207 56 176 52 139"
    stroke="#171716"
    stroke-width="18"
    stroke-linecap="round"
    stroke-linejoin="round"
  />
  <path
    d="M75 164C91 139 118 122 148 120C172 118 193 127 207 143"
    stroke="#171716"
    stroke-width="14"
    stroke-linecap="round"
    stroke-linejoin="round"
  />
  <circle cx="139" cy="146" r="17" fill="#171716" />
  <path d="M112 40C103 25 98 15 93 10" stroke="#B89B43" stroke-width="12" stroke-linecap="round" />
  <path d="M151 35C152 18 153 10 156 4" stroke="#C5A94F" stroke-width="12" stroke-linecap="round" />
  <path d="M187 49C199 36 207 28 215 24" stroke="#D2B75E" stroke-width="12" stroke-linecap="round" />
</svg>
