<?xml version="1.0" encoding="UTF-8"?>
<svg width="720" height="142" viewBox="0 0 720 142" fill="none" xmlns="http://www.w3.org/2000/svg" role="img" aria-labelledby="title desc">
  <title id="title">OpenScience wordmark compact aligned</title>
  <desc id="desc">OpenScience wordmark with compact, optically aligned tabs above Deep, Scientist, and Pro.</desc>
  <path d="M 42 24 L 204 24" stroke="#D6C071" stroke-width="11" stroke-linecap="round"/>
  <path d="M 224 24 L 519 24" stroke="#B69B4A" stroke-width="11" stroke-linecap="round"/>
  <path d="M 544 24 L 641 24" stroke="#8F732D" stroke-width="11" stroke-linecap="round"/>
  <g transform="matrix(1.22 0 0 1.22 18 34)">
    <g transform="translate(8 0) scale(0.99 1) translate(-8 0)"><path d="M27.82 58.22L19.87 58.22L19.87 50.83L28.33 50.83Q31.52 50.83 34.01 49.85Q36.50 48.87 38.24 47.08Q39.98 45.29 40.90 42.85Q41.82 40.42 41.82 37.45L41.82 37.45Q41.82 34.37 40.90 31.93Q39.98 29.50 38.24 27.76Q36.50 26.02 34.01 25.13Q31.52 24.23 28.33 24.23L28.33 24.23L19.87 24.23L19.87 16.84L27.82 16.84Q33.37 16.84 37.51 18.46Q41.66 20.09 44.40 22.92Q47.14 25.74 48.52 29.36Q49.89 32.97 49.89 36.83L49.89 36.83L49.89 38.06Q49.89 41.76 48.52 45.34Q47.14 48.93 44.40 51.84Q41.66 54.75 37.51 56.49Q33.37 58.22 27.82 58.22L27.82 58.22ZM20.99 58.22L13.04 58.22L13.04 16.84L20.99 16.84L20.99 58.22ZM69.99 59.06L69.99 59.06Q66.07 59.06 63.13 57.72Q60.19 56.38 58.26 54.11Q56.33 51.84 55.35 49.04Q54.37 46.24 54.37 43.33L54.37 43.33L54.37 42.26Q54.37 39.24 55.35 36.41Q56.33 33.58 58.26 31.37Q60.19 29.16 63.05 27.84Q65.90 26.53 69.66 26.53L69.66 26.53Q74.58 26.53 77.92 28.68Q81.25 30.84 82.93 34.34Q84.61 37.84 84.61 41.87L84.61 41.87L84.61 44.67L57.67 44.67L57.67 39.91L79.74 39.91L77.33 42.26Q77.33 39.35 76.49 37.28Q75.65 35.21 73.94 34.09Q72.23 32.97 69.66 32.97L69.66 32.97Q67.08 32.97 65.29 34.14Q63.50 35.32 62.57 37.53Q61.65 39.74 61.65 42.82L61.65 42.82Q61.65 45.68 62.54 47.89Q63.44 50.10 65.29 51.36Q67.14 52.62 69.99 52.62L69.99 52.62Q72.85 52.62 74.64 51.48Q76.43 50.33 76.94 48.65L76.94 48.65L84.10 48.65Q83.43 51.78 81.53 54.14Q79.62 56.49 76.68 57.78Q73.74 59.06 69.99 59.06ZM104.71 59.06L104.71 59.06Q100.79 59.06 97.85 57.72Q94.91 56.38 92.98 54.11Q91.05 51.84 90.07 49.04Q89.09 46.24 89.09 43.33L89.09 43.33L89.09 42.26Q89.09 39.24 90.07 36.41Q91.05 33.58 92.98 31.37Q94.91 29.16 97.77 27.84Q100.62 26.53 104.38 26.53L104.38 26.53Q109.30 26.53 112.64 28.68Q115.97 30.84 117.65 34.34Q119.33 37.84 119.33 41.87L119.33 41.87L119.33 44.67L92.39 44.67L92.39 39.91L114.46 39.91L112.05 42.26Q112.05 39.35 111.21 37.28Q110.37 35.21 108.66 34.09Q106.95 32.97 104.38 32.97L104.38 32.97Q101.80 32.97 100.01 34.14Q98.22 35.32 97.29 37.53Q96.37 39.74 96.37 42.82L96.37 42.82Q96.37 45.68 97.26 47.89Q98.16 50.10 100.01 51.36Q101.86 52.62 104.71 52.62L104.71 52.62Q107.57 52.62 109.36 51.48Q111.15 50.33 111.66 48.65L111.66 48.65L118.82 48.65Q118.15 51.78 116.25 54.14Q114.34 56.49 111.40 57.78Q108.46 59.06 104.71 59.06ZM133.61 69.20L125.82 69.20L125.82 27.59L131.98 27.59L131.98 40.70L131.03 40.64Q131.26 35.99 132.96 32.86Q134.67 29.72 137.53 28.18Q140.38 26.64 143.91 26.64L143.91 26.64Q147.16 26.64 149.76 27.82Q152.37 28.99 154.24 31.12Q156.12 33.25 157.13 36.08Q158.14 38.90 158.14 42.15L158.14 42.15L158.14 43.33Q158.14 46.63 157.16 49.46Q156.18 52.29 154.30 54.44Q152.42 56.60 149.79 57.80Q147.16 59.01 143.91 59.01L143.91 59.01Q140.50 59.01 137.67 57.58Q134.84 56.15 133.10 53.16Q131.37 50.16 131.14 45.40L131.14 45.40L133.61 49.15L133.61 69.20ZM141.95 52.46L141.95 52.46Q144.47 52.46 146.35 51.22Q148.22 49.99 149.29 47.78Q150.35 45.57 150.35 42.77L150.35 42.77Q150.35 39.86 149.29 37.73Q148.22 35.60 146.35 34.40Q144.47 33.19 141.95 33.19L141.95 33.19Q139.66 33.19 137.72 34.20Q135.79 35.21 134.59 37.17Q133.38 39.13 133.38 41.87L133.38 41.87L133.38 44.11Q133.38 46.74 134.62 48.59Q135.85 50.44 137.81 51.45Q139.77 52.46 141.95 52.46ZM179.53 59.06L179.53 59.06Q174.10 59.06 170.37 57.33Q166.65 55.59 164.69 52.54Q162.73 49.49 162.73 45.62L162.73 45.62L170.51 45.62Q170.51 47.25 171.41 48.79Q172.30 50.33 174.29 51.28Q176.28 52.23 179.53 52.23L179.53 52.23Q182.44 52.23 184.40 51.39Q186.36 50.55 187.31 49.18Q188.26 47.81 188.26 46.07L188.26 46.07Q188.26 43.89 186.42 42.57Q184.57 41.26 180.70 40.92L180.70 40.92L177.12 40.64Q171.24 40.14 167.74 36.97Q164.24 33.81 164.24 28.60L164.24 28.60Q164.24 24.68 166.09 21.85Q167.94 19.02 171.27 17.48Q174.60 15.94 179.08 15.94L179.08 15.94Q183.73 15.94 187.09 17.57Q190.45 19.19 192.30 22.13Q194.14 25.07 194.14 29.05L194.14 29.05L186.36 29.05Q186.36 27.37 185.55 25.94Q184.74 24.51 183.14 23.64Q181.54 22.78 179.08 22.78L179.08 22.78Q176.73 22.78 175.16 23.56Q173.59 24.34 172.81 25.69Q172.02 27.03 172.02 28.60L172.02 28.60Q172.02 30.50 173.42 31.93Q174.82 33.36 177.85 33.58L177.85 33.58L181.43 33.92Q185.80 34.26 189.10 35.77Q192.41 37.28 194.23 39.86Q196.05 42.43 196.05 46.07L196.05 46.07Q196.05 49.94 194.03 52.88Q192.02 55.82 188.29 57.44Q184.57 59.06 179.53 59.06ZM216.21 59.06L216.21 59.06Q212.23 59.06 209.35 57.72Q206.46 56.38 204.53 54.14Q202.60 51.90 201.65 49.10Q200.70 46.30 200.70 43.38L200.70 43.38L200.70 42.32Q200.70 39.24 201.68 36.41Q202.66 33.58 204.62 31.37Q206.58 29.16 209.46 27.84Q212.34 26.53 216.15 26.53L216.15 26.53Q220.13 26.53 223.26 28.07Q226.40 29.61 228.28 32.35Q230.15 35.10 230.38 38.74L230.38 38.74L222.82 38.74Q222.54 36.38 220.83 34.82Q219.12 33.25 216.15 33.25L216.15 33.25Q213.58 33.25 211.87 34.48Q210.16 35.71 209.32 37.87Q208.48 40.02 208.48 42.82L208.48 42.82Q208.48 45.51 209.29 47.70Q210.10 49.88 211.81 51.11Q213.52 52.34 216.21 52.34L216.21 52.34Q218.22 52.34 219.68 51.62Q221.14 50.89 222.00 49.60Q222.87 48.31 223.10 46.69L223.10 46.69L230.66 46.69Q230.43 50.38 228.50 53.16Q226.57 55.93 223.40 57.50Q220.24 59.06 216.21 59.06ZM246.11 58L238.33 58L238.33 27.59L246.11 27.59L246.11 58ZM246.11 33.42L234.07 33.42L234.07 27.59L246.11 27.59L246.11 33.42ZM241.18 23.95L241.18 23.95Q238.89 23.95 237.80 22.75Q236.70 21.54 236.70 19.70L236.70 19.70Q236.70 17.85 237.80 16.67Q238.89 15.50 241.18 15.50L241.18 15.50Q243.48 15.50 244.54 16.67Q245.61 17.85 245.61 19.70L245.61 19.70Q245.61 21.54 244.54 22.75Q243.48 23.95 241.18 23.95ZM268.68 59.06L268.68 59.06Q264.76 59.06 261.82 57.72Q258.88 56.38 256.95 54.11Q255.02 51.84 254.04 49.04Q253.06 46.24 253.06 43.33L253.06 43.33L253.06 42.26Q253.06 39.24 254.04 36.41Q255.02 33.58 256.95 31.37Q258.88 29.16 261.74 27.84Q264.59 26.53 268.34 26.53L268.34 26.53Q273.27 26.53 276.60 28.68Q279.94 30.84 281.62 34.34Q283.30 37.84 283.30 41.87L283.30 41.87L283.30 44.67L256.36 44.67L256.36 39.91L278.42 39.91L276.02 42.26Q276.02 39.35 275.18 37.28Q274.34 35.21 272.63 34.09Q270.92 32.97 268.34 32.97L268.34 32.97Q265.77 32.97 263.98 34.14Q262.18 35.32 261.26 37.53Q260.34 39.74 260.34 42.82L260.34 42.82Q260.34 45.68 261.23 47.89Q262.13 50.10 263.98 51.36Q265.82 52.62 268.68 52.62L268.68 52.62Q271.54 52.62 273.33 51.48Q275.12 50.33 275.62 48.65L275.62 48.65L282.79 48.65Q282.12 51.78 280.22 54.14Q278.31 56.49 275.37 57.78Q272.43 59.06 268.68 59.06ZM297.58 58L289.79 58L289.79 27.59L295.95 27.59L295.95 40.64L295.39 40.64Q295.39 35.99 296.62 32.88Q297.86 29.78 300.29 28.21Q302.73 26.64 306.37 26.64L306.37 26.64L306.70 26.64Q312.14 26.64 314.94 30.14Q317.74 33.64 317.74 40.58L317.74 40.58L317.74 58L309.95 58L309.95 39.91Q309.95 37.11 308.36 35.38Q306.76 33.64 303.96 33.64L303.96 33.64Q301.10 33.64 299.34 35.40Q297.58 37.17 297.58 40.14L297.58 40.14L297.58 58ZM343.66 58.39L339.30 58.39Q335.10 58.39 332.38 57.30Q329.66 56.21 328.32 53.60Q326.98 51 326.98 46.58L326.98 46.58L327.03 19.02L334.31 19.02L334.26 47.08Q334.26 49.32 335.46 50.52Q336.66 51.73 338.90 51.73L338.90 51.73L343.66 51.73L343.66 58.39ZM343.66 33.30L322.16 33.30L322.16 27.59L343.66 27.59L343.66 33.30ZM359.46 58L351.67 58L351.67 27.59L359.46 27.59L359.46 58ZM359.46 33.42L347.42 33.42L347.42 27.59L359.46 27.59L359.46 33.42ZM354.53 23.95L354.53 23.95Q352.23 23.95 351.14 22.75Q350.05 21.54 350.05 19.70L350.05 19.70Q350.05 17.85 351.14 16.67Q352.23 15.50 354.53 15.50L354.53 15.50Q356.82 15.50 357.89 16.67Q358.95 17.85 358.95 19.70L358.95 19.70Q358.95 21.54 357.89 22.75Q356.82 23.95 354.53 23.95ZM379.45 58.95L379.45 58.95Q373.18 58.95 369.62 56.29Q366.06 53.63 365.90 48.93L365.90 48.93L372.90 48.93Q373.06 50.50 374.63 51.78Q376.20 53.07 379.56 53.07L379.56 53.07Q382.36 53.07 384.01 52.06Q385.66 51.06 385.66 49.32L385.66 49.32Q385.66 47.81 384.40 46.91Q383.14 46.02 380.12 45.74L380.12 45.74L377.43 45.46Q372.34 44.90 369.59 42.54Q366.85 40.19 366.85 36.27L366.85 36.27Q366.85 33.14 368.42 31.01Q369.98 28.88 372.76 27.79Q375.53 26.70 379.11 26.70L379.11 26.70Q384.71 26.70 388.18 29.16Q391.66 31.62 391.82 36.38L391.82 36.38L384.82 36.38Q384.71 34.82 383.26 33.70Q381.80 32.58 379.06 32.58L379.06 32.58Q376.59 32.58 375.25 33.53Q373.90 34.48 373.90 35.99L373.90 35.99Q373.90 37.45 375.00 38.23Q376.09 39.02 378.55 39.30L378.55 39.30L381.24 39.58Q386.62 40.14 389.67 42.54Q392.72 44.95 392.72 49.04L392.72 49.04Q392.72 52.06 391.07 54.28Q389.42 56.49 386.45 57.72Q383.48 58.95 379.45 58.95ZM416.74 58.39L412.38 58.39Q408.18 58.39 405.46 57.30Q402.74 56.21 401.40 53.60Q400.06 51 400.06 46.58L400.06 46.58L400.11 19.02L407.39 19.02L407.34 47.08Q407.34 49.32 408.54 50.52Q409.74 51.73 411.98 51.73L411.98 51.73L416.74 51.73L416.74 58.39ZM416.74 33.30L395.24 33.30L395.24 27.59L416.74 27.59L416.74 33.30Z" fill="#171717"/></g>
    <g transform="translate(419.66695999999996 0) scale(0.99 1) translate(-419.66695999999996 0)"><path d="M438.82 45.46L431.54 45.46L431.54 38.57L439.49 38.57Q441.90 38.57 443.55 37.62Q445.20 36.66 446.07 34.98Q446.94 33.30 446.94 31.12L446.94 31.12Q446.94 28.94 446.07 27.26Q445.20 25.58 443.55 24.65Q441.90 23.73 439.49 23.73L439.49 23.73L431.54 23.73L431.54 16.84L438.82 16.84Q443.97 16.84 447.58 18.52Q451.19 20.20 453.10 23.31Q455.00 26.42 455.00 30.67L455.00 30.67L455.00 31.57Q455.00 35.82 453.10 38.93Q451.19 42.04 447.58 43.75Q443.97 45.46 438.82 45.46L438.82 45.46ZM432.66 58L424.71 58L424.71 16.84L432.66 16.84L432.66 58ZM468.95 58L461.16 58L461.16 27.59L467.32 27.59L467.32 40.47L467.15 40.47Q467.15 33.92 469.95 30.56Q472.75 27.20 478.19 27.20L478.19 27.20L479.31 27.20L479.31 33.98L477.18 33.98Q473.26 33.98 471.10 36.08Q468.95 38.18 468.95 42.15L468.95 42.15L468.95 58ZM498.91 59.06L498.91 59.06Q494.87 59.06 491.79 57.78Q488.71 56.49 486.59 54.28Q484.46 52.06 483.37 49.26Q482.27 46.46 482.27 43.44L482.27 43.44L482.27 42.26Q482.27 39.13 483.42 36.30Q484.57 33.47 486.73 31.26Q488.88 29.05 491.96 27.79Q495.04 26.53 498.91 26.53L498.91 26.53Q502.77 26.53 505.85 27.79Q508.93 29.05 511.09 31.26Q513.24 33.47 514.36 36.30Q515.48 39.13 515.48 42.26L515.48 42.26L515.48 43.44Q515.48 46.46 514.39 49.26Q513.30 52.06 511.17 54.28Q509.04 56.49 505.96 57.78Q502.88 59.06 498.91 59.06ZM498.91 52.40L498.91 52.40Q501.76 52.40 503.72 51.14Q505.68 49.88 506.69 47.72Q507.70 45.57 507.70 42.82L507.70 42.82Q507.70 40.02 506.66 37.87Q505.63 35.71 503.64 34.45Q501.65 33.19 498.91 33.19L498.91 33.19Q496.16 33.19 494.17 34.45Q492.19 35.71 491.12 37.87Q490.06 40.02 490.06 42.82L490.06 42.82Q490.06 45.57 491.09 47.72Q492.13 49.88 494.09 51.14Q496.05 52.40 498.91 52.40Z" fill="#B69B4A"/></g>
  </g>
</svg>
